<?xml version="1.0" standalone="no"?>
<!DOCTYPE svg PUBLIC "-//W3C//DTD SVG 20010904//EN"
 "http://www.w3.org/TR/2001/REC-SVG-20010904/DTD/svg10.dtd">
<svg version="1.0" xmlns="http://www.w3.org/2000/svg"
 width="300.000000pt" height="91.000000pt" viewBox="0 0 300.000000 91.000000"
 preserveAspectRatio="xMidYMid meet">
<metadata>
Created by potrace 1.10, written by Peter Selinger 2001-2011
</metadata>
<g transform="translate(0.000000,91.000000) scale(0.100000,-0.100000)"
fill="#ffffff" stroke="none">
<path d="M1890 794 c-32 -29 -45 -52 -65 -116 -14 -43 -25 -87 -25 -97 0 -26
-10 -31 -31 -18 -16 10 -26 8 -57 -8 -29 -16 -45 -36 -74 -95 -44 -87 -116
-163 -151 -158 -21 3 -22 8 -22 88 0 95 -6 110 -40 110 -27 0 -41 -13 -97 -87
-56 -73 -70 -73 -43 2 8 22 14 61 15 87 0 40 -4 50 -25 64 -14 9 -27 15 -29
13 -2 -2 -18 -38 -35 -79 -18 -41 -39 -92 -48 -113 -19 -44 -68 -89 -92 -85
-12 3 -16 15 -16 53 0 60 -25 74 -44 26 -14 -31 -61 -82 -61 -64 0 15 69 116
86 126 37 21 1 57 -59 57 -38 0 -60 -19 -101 -91 -31 -55 -33 -78 -6 -112 28
-36 67 -43 101 -18 23 17 31 18 58 8 22 -8 41 -8 70 -1 l39 11 -5 -53 c-6 -51
-5 -53 22 -60 49 -12 78 6 95 58 15 48 113 198 129 198 5 0 11 -29 13 -65 5
-86 27 -110 95 -107 42 1 53 7 86 42 22 23 40 40 41 38 1 -2 6 -16 12 -33 13
-41 66 -68 102 -52 13 6 31 25 38 42 l12 30 8 -30 c18 -76 73 -145 115 -145
36 0 86 58 119 138 18 42 39 87 48 100 14 22 17 22 27 8 7 -9 27 -21 44 -27
28 -10 37 -9 61 9 24 18 32 19 59 9 22 -8 42 -8 69 -1 l38 10 -4 -52 c-4 -51
-3 -53 23 -60 47 -12 78 6 91 52 13 46 29 72 87 151 22 29 43 50 48 47 5 -3 9
-29 9 -59 0 -74 30 -110 88 -108 52 2 74 14 106 56 32 41 60 107 46 107 -5 0
-10 -4 -10 -8 0 -5 -24 -34 -53 -65 -40 -44 -59 -57 -81 -57 l-29 0 6 81 c8
95 -1 119 -42 119 -24 0 -38 -12 -82 -70 -70 -91 -83 -93 -54 -10 16 45 20
108 7 126 -4 6 -17 16 -30 23 -19 10 -23 9 -29 -6 -3 -10 -18 -47 -33 -83 -15
-36 -33 -80 -40 -98 -15 -38 -66 -84 -89 -80 -12 3 -16 15 -16 53 0 62 -22 71
-49 21 -10 -19 -30 -45 -43 -58 l-24 -23 11 30 c12 32 66 105 87 118 36 22 -1
57 -61 57 -28 0 -41 -7 -66 -37 -32 -39 -123 -218 -134 -264 -3 -15 -15 -37
-25 -50 -24 -29 -45 -20 -76 32 -16 27 -20 52 -20 120 0 83 10 120 41 159 19
22 64 164 64 199 0 20 -8 35 -22 45 -30 22 -32 21 -78 -20z m80 -33 c0 -48
-24 -126 -52 -171 -18 -29 -23 -32 -26 -16 -4 20 14 126 28 161 26 66 31 76
40 70 6 -3 10 -23 10 -44z m-199 -364 c-3 -42 -28 -97 -43 -97 -27 0 -16 73
19 128 19 31 28 20 24 -31z m114 -217 c3 -6 -1 -7 -9 -4 -18 7 -21 14 -7 14 6
0 13 -4 16 -10z"/>
<path d="M585 665 c-33 -8 -77 -17 -98 -21 -46 -8 -70 -39 -65 -86 3 -28 7
-34 31 -36 39 -5 41 -19 17 -85 -18 -48 -25 -57 -46 -57 -21 0 -24 -5 -24 -33
0 -18 5 -38 12 -45 9 -9 8 -22 -1 -54 -18 -60 -27 -68 -77 -68 -34 0 -47 -5
-59 -23 -20 -31 -45 -116 -36 -122 5 -2 25 0 45 6 21 6 55 8 76 4 28 -5 40 -3
47 8 11 20 41 34 90 42 70 11 170 52 212 85 43 35 85 117 74 147 -16 46 -45
73 -84 79 -21 4 -39 12 -39 18 1 6 24 25 53 41 88 51 122 141 72 190 -20 21
-33 25 -82 24 -32 0 -85 -7 -118 -14z m171 -100 c18 -15 18 -16 -11 -40 -29
-24 -165 -94 -213 -109 -28 -9 -29 12 -3 69 24 54 42 67 114 81 84 16 90 16
113 -1z m-42 -247 c30 -42 21 -54 -56 -82 -73 -25 -196 -51 -205 -43 -9 9 9
78 26 97 19 23 107 48 173 49 38 1 50 -3 62 -21z m33 -25 c-4 -3 -7 0 -7 7 0
7 3 10 7 7 3 -4 3 -10 0 -14z"/>
</g>
</svg>
